<?xml version="1.0" encoding="utf-8"?>
<!-- Generator: Adobe Illustrator 24.2.1, SVG Export Plug-In . SVG Version: 6.00 Build 0)  -->
<svg version="1.1" id="Layer_1" xmlns="http://www.w3.org/2000/svg" xmlns:xlink="http://www.w3.org/1999/xlink" x="0px" y="0px"
	 viewBox="0 0 129 129" style="enable-background:new 0 0 129 129;" xml:space="preserve">
<style type="text/css">
	.st0{fill:none;stroke:#FFFFFF;stroke-width:2;}
</style>
<path class="st0" d="M103.4,60.4L103.4,60.4l-1,0c-7.5,0-13.4-0.3-18-1.2c-4.6-0.9-7.8-2.4-10.1-4.6c-2.3-2.3-3.8-5.5-4.6-10.1
	c-0.9-4.6-1.2-10.4-1.2-18V2V1h-1h-6.1h-1v1v24.6c0,7.5-0.3,13.4-1.2,18c-0.9,4.6-2.4,7.8-4.6,10.1s-5.5,3.8-10.1,4.6
	c-4.6,0.9-10.4,1.2-18,1.2H2H1v1v6.1v1h1h24.6c7.5,0,13.4,0.3,18,1.2c4.6,0.9,7.8,2.4,10.1,4.6c2.3,2.3,3.8,5.5,4.6,10.1
	c0.9,4.6,1.2,10.4,1.2,18V127v1h1h6.1h1v-1v-24.6c0-7.5,0.3-13.4,1.2-18c0.9-4.6,2.4-7.8,4.6-10.1s5.5-3.8,10.1-4.6
	c4.6-0.9,10.4-1.2,18-1.2H127h1v-1v-6.1v-1h-1H103.4z"/>
</svg>
